# xmcd
#
# Track frame offsets:
#	150
#	12277
#	29125
#	43013
#	55963
#	69238
#	82608
#	94459
#	106949
#	120447
#
# Disc length: 1767 seconds
# Revision: 0
# Processed by: cddbd v1.5.2PL0 Copyright (c) Steve Scherf et al.
# Submitted via: dBpowerAMP V12.0
#
DISCID=7906e50a
DTITLE=John Conlee - Forever [MCA] (L)
DYEAR=1900
DGENRE=Country
TTITLE0=Before My Time
TTITLE1=Let's Keep It That Way
TTITLE2=Forever
TTITLE3=You Never Cross My Mind
TTITLE4=I Wish That I Could Hurt That Way Again
TTITLE5=Baby You're Something
TTITLE6=No Relief In Sight
TTITLE7="In Crowd"
TTITLE8="Crazy"
TTITLE9="Somebody's Leavin'"
EXTD=
EXTT0=
EXTT1=
EXTT2=
EXTT3=
EXTT4=
EXTT5=
EXTT6=
EXTT7=
EXTT8=
EXTT9=
PLAYORDER=
